<?xml version="1.0" standalone="no"?>
<!DOCTYPE svg PUBLIC "-//W3C//DTD SVG 20010904//EN"
 "http://www.w3.org/TR/2001/REC-SVG-20010904/DTD/svg10.dtd">
<svg version="1.0" xmlns="http://www.w3.org/2000/svg"
 width="90.000000pt" height="90.000000pt" viewBox="0 0 90.000000 90.000000"
 preserveAspectRatio="xMidYMid meet">
<metadata>
Created by potrace 1.16, written by Peter Selinger 2001-2019
</metadata>
<g transform="translate(0.000000,90.000000) scale(0.100000,-0.100000)"
fill="#000000" stroke="none">
<path d="M342 822 c-156 -56 -257 -246 -222 -419 7 -32 19 -70 26 -85 13 -24
11 -35 -10 -103 -13 -41 -20 -75 -15 -75 4 0 34 9 64 21 l56 21 62 -33 c54
-29 71 -33 137 -34 62 0 85 5 132 28 178 87 248 324 151 514 -72 143 -239 215
-381 165z m18 -168 l22 -35 -47 -71 -47 -70 46 -69 c25 -38 46 -72 46 -76 0
-5 -11 -21 -25 -38 -16 -20 -27 -26 -32 -19 -5 6 -36 54 -71 107 l-64 95 71
106 c39 58 73 106 75 106 3 0 14 -16 26 -36z m330 -175 c0 -13 -131 -209 -139
-209 -3 0 -16 15 -28 34 l-22 33 45 66 c24 37 44 69 44 72 0 4 -20 37 -44 75
l-44 68 25 37 24 36 70 -101 c38 -55 69 -105 69 -111z"/>
</g>
</svg>
